<svg width="400" height="300" xmlns="http://www.w3.org/2000/svg">
  <rect width="400" height="300" fill="#f3f4f6"/>
  <g transform="translate(100, 100)">
    <!-- Car silhouette -->
    <path d="M20 80 L40 60 L60 50 L140 50 L160 60 L180 80 L180 90 L170 90 L170 100 C170 110 160 120 150 120 L140 120 C130 120 120 110 120 100 L80 100 C80 110 70 120 60 120 L50 120 C40 120 30 110 30 100 L30 90 L20 90 Z" fill="#9ca3af"/>
    <!-- Wheels -->
    <circle cx="50" cy="100" r="15" fill="#374151"/>
    <circle cx="150" cy="100" r="15" fill="#374151"/>
    <!-- Windows -->
    <path d="M45 60 L65 50 L135 50 L155 60 L155 75 L45 75 Z" fill="#e5e7eb"/>
  </g>
  <text x="200" y="180" text-anchor="middle" fill="#6b7280" font-family="Arial, sans-serif" font-size="16">No Image Available</text>
</svg>
